<?xml version="1.0" standalone="no"?>
<!DOCTYPE svg PUBLIC "-//W3C//DTD SVG 20010904//EN"
 "http://www.w3.org/TR/2001/REC-SVG-20010904/DTD/svg10.dtd">
<svg version="1.0" xmlns="http://www.w3.org/2000/svg"
 width="512.000000pt" height="512.000000pt" viewBox="0 0 512.000000 512.000000"
 preserveAspectRatio="xMidYMid meet">

<g transform="translate(0.000000,512.000000) scale(0.100000,-0.100000)"
fill="#000000" stroke="none">
<path d="M1390 2560 l0 -1360 1750 0 1750 0 0 1360 0 1360 -1750 0 -1750 0 0
-1360z m1373 722 c-151 -149 -224 -324 -225 -537 0 -199 64 -361 198 -505 119
-125 237 -192 404 -226 209 -42 460 24 620 163 35 32 51 41 47 28 -23 -60 -83
-141 -167 -225 -78 -79 -111 -104 -186 -143 -141 -72 -223 -92 -384 -92 -163
0 -223 14 -370 87 -94 46 -116 62 -206 152 -89 90 -106 113 -153 207 -114 231
-120 478 -16 705 78 172 212 311 377 394 55 27 104 50 110 50 5 0 -17 -26 -49
-58z m634 -135 c10 -13 37 -45 60 -71 l43 -49 85 38 c47 21 87 36 90 34 2 -3
-16 -38 -40 -79 -25 -41 -45 -79 -45 -84 0 -5 28 -40 61 -78 34 -38 60 -71 58
-73 -3 -2 -42 5 -89 16 -46 11 -89 18 -96 15 -6 -2 -31 -39 -55 -80 -24 -42
-46 -76 -50 -76 -4 0 -10 42 -14 94 l-7 95 -94 21 c-52 12 -92 25 -90 29 2 3
41 22 85 41 92 38 87 29 72 163 -4 37 -4 67 0 67 4 0 16 -10 26 -23z"/>
</g>
</svg>
